<?xml version="1.0" standalone="no"?>
<!DOCTYPE svg PUBLIC "-//W3C//DTD SVG 20010904//EN"
 "http://www.w3.org/TR/2001/REC-SVG-20010904/DTD/svg10.dtd">
<svg version="1.0" xmlns="http://www.w3.org/2000/svg"
 width="256.000000pt" height="256.000000pt" viewBox="0 0 256.000000 256.000000"
 preserveAspectRatio="xMidYMid meet">

<g transform="translate(0.000000,256.000000) scale(0.100000,-0.100000)"
fill="#000000" stroke="none">
<path d="M85 2405 c-3 -8 -7 -21 -9 -29 -3 -10 4 -16 22 -18 27 -3 27 -3 24
-75 l-4 -73 36 0 36 0 0 74 c0 70 1 75 23 78 16 2 23 11 25 31 l3 27 -76 0
c-58 0 -77 -3 -80 -15z m105 -24 c-23 -6 -25 -13 -31 -76 l-5 -70 -2 72 c-2
66 -4 72 -24 76 -13 2 2 4 32 5 37 0 47 -2 30 -7z"/>
<path d="M288 2413 l-28 -4 0 -100 0 -100 33 3 c27 2 33 8 35 31 4 34 8 34 39
-3 15 -18 34 -30 49 -30 29 0 30 6 5 44 -20 29 -20 30 1 59 17 23 19 35 12 55
-16 44 -60 58 -146 45z m102 -33 c11 -11 20 -26 19 -32 0 -7 -5 -3 -11 10 -12
23 -43 36 -75 30 -15 -3 -19 -16 -24 -78 l-5 -75 -2 76 c-1 42 1 79 5 82 14
15 74 6 93 -13z m-20 -31 c0 -10 -2 -19 -4 -19 -2 0 -11 -3 -20 -6 -12 -5 -16
0 -16 18 0 14 3 27 6 31 11 11 34 -5 34 -24z"/>
<path d="M507 2326 c-21 -53 -37 -100 -37 -106 0 -16 57 -12 64 5 7 20 65 20
80 -1 8 -10 23 -14 43 -12 l31 3 -36 100 c-37 100 -37 100 -73 103 l-36 3 -36
-95z m83 60 c0 -2 -7 -6 -15 -10 -8 -3 -15 -1 -15 4 0 6 7 10 15 10 8 0 15 -2
15 -4z m-44 -63 c-8 -15 -15 -25 -16 -21 0 12 23 58 27 54 3 -2 -2 -17 -11
-33z m74 -8 c0 -5 -5 -3 -10 5 -5 8 -10 20 -10 25 0 6 5 3 10 -5 5 -8 10 -19
10 -25z m-30 -15 c0 -11 -7 -20 -15 -20 -15 0 -21 21 -8 33 12 13 23 7 23 -13z
m50 -35 c0 -5 -5 -3 -10 5 -5 8 -10 20 -10 25 0 6 5 3 10 -5 5 -8 10 -19 10
-25z m-110 10 c0 -8 -4 -15 -10 -15 -5 0 -7 7 -4 15 4 8 8 15 10 15 2 0 4 -7
4 -15z"/>
<path d="M710 2316 l0 -106 30 0 c25 0 30 4 30 25 0 32 17 32 51 -1 24 -23 30
-24 50 -14 13 7 26 14 28 16 2 2 -13 19 -35 38 l-39 34 39 41 c22 22 38 42 35
44 -2 3 -15 10 -28 17 -23 12 -27 10 -51 -19 -33 -39 -52 -40 -48 -3 3 24 -1
27 -29 30 l-33 3 0 -105z m37 -38 c-2 -24 -4 -7 -4 37 0 44 2 63 4 43 2 -21 2
-57 0 -80z m113 99 c0 -2 -10 -12 -22 -23 l-23 -19 19 23 c18 21 26 27 26 19z
m-66 -58 c-3 -6 9 -27 27 -47 l34 -37 -35 33 c-20 17 -42 32 -50 32 -9 0 -8 5
6 15 23 17 27 18 18 4z"/>
<path d="M928 2383 c-3 -21 -3 -68 0 -105 l5 -68 67 0 c53 0 69 4 74 16 11 29
6 33 -41 36 -58 4 -60 22 -3 26 41 3 45 8 34 36 -4 11 -19 16 -45 16 -21 0
-39 5 -39 10 0 6 23 10 50 10 52 0 53 1 44 38 -6 20 -12 22 -74 22 l-68 0 -4
-37z m34 -76 c2 -42 0 -77 -4 -77 -5 0 -8 37 -8 82 0 102 9 98 12 -5z"/>
<path d="M1266 2404 c-12 -31 -6 -44 20 -44 l27 0 -5 -75 -5 -75 37 0 37 0 -5
49 c-6 66 3 101 27 101 18 0 35 35 25 52 -3 4 -38 8 -79 8 -57 0 -74 -3 -79
-16z m107 -21 c-21 -4 -23 -10 -23 -74 0 -39 -4 -69 -10 -69 -6 0 -10 30 -10
69 0 64 -2 70 -22 74 -13 2 2 4 32 4 30 0 45 -2 33 -4z"/>
<path d="M1487 2323 c-21 -54 -37 -101 -37 -105 0 -15 61 -8 66 7 4 9 19 15
39 15 20 0 35 -6 39 -15 3 -9 18 -15 40 -15 l35 0 -30 88 c-42 119 -44 122
-82 122 -31 0 -33 -2 -70 -97z m89 49 c1 -7 0 -8 -3 -2 -10 20 -21 9 -42 -39
-25 -60 -25 -58 -3 -64 10 -3 7 -5 -10 -6 l-27 -1 16 38 c28 67 44 93 55 90 7
-3 13 -10 14 -16z m24 -57 c0 -5 -5 -3 -10 5 -5 8 -10 20 -10 25 0 6 5 3 10
-5 5 -8 10 -19 10 -25z m-30 -15 c0 -11 -7 -20 -15 -20 -15 0 -21 21 -8 33 12
13 23 7 23 -13z m50 -35 c0 -5 -5 -3 -10 5 -5 8 -10 20 -10 25 0 6 5 3 10 -5
5 -8 10 -19 10 -25z"/>
<path d="M1696 2404 c-12 -31 -6 -44 20 -44 l27 0 -6 -75 -5 -75 37 0 38 0 -5
49 c-6 66 3 101 27 101 18 0 35 35 25 52 -3 4 -38 8 -79 8 -57 0 -74 -3 -79
-16z m107 -21 c-21 -4 -23 -10 -25 -76 l-2 -72 -3 72 c-4 69 -5 72 -31 76 -15
2 -2 4 28 4 30 0 45 -2 33 -4z"/>
<path d="M1876 2398 c-9 -35 -8 -38 20 -38 26 0 26 0 22 -75 l-3 -75 38 0 39
0 -7 39 c-9 56 3 111 25 111 17 0 34 36 24 52 -3 4 -38 8 -78 8 -68 0 -74 -2
-80 -22z m107 -15 c-21 -4 -23 -10 -25 -76 l-2 -72 -3 72 c-4 65 -6 72 -26 76
-12 2 1 4 28 4 28 0 40 -2 28 -4z"/>
<path d="M2101 2404 c-28 -20 -53 -76 -45 -101 14 -42 30 -66 56 -79 78 -40
158 5 158 91 0 65 -39 105 -102 105 -24 0 -54 -7 -67 -16z m32 -26 c-13 -6
-25 -20 -29 -30 -3 -11 -8 -17 -11 -14 -10 10 27 56 45 55 13 0 12 -3 -5 -11z
m85 -4 c12 -8 22 -20 22 -26 0 -7 -6 -5 -12 4 -7 8 -22 20 -33 26 -11 6 -15
12 -10 12 6 0 21 -7 33 -16z m-20 -26 c7 -7 12 -21 12 -33 0 -12 -5 -26 -12
-33 -7 -7 -21 -12 -33 -12 -12 0 -26 5 -33 12 -7 7 -12 21 -12 33 0 12 5 26
12 33 7 7 21 12 33 12 12 0 26 -5 33 -12z m49 -40 c-3 -8 -6 -5 -6 6 -1 11 2
17 5 13 3 -3 4 -12 1 -19z m-112 -56 c13 -7 15 -12 6 -12 -17 0 -51 29 -51 43
0 6 6 4 13 -5 6 -8 21 -20 32 -26z m90 8 c-10 -11 -25 -20 -34 -19 -10 0 -8 4
7 9 12 5 25 17 28 25 4 9 9 13 12 10 3 -2 -3 -14 -13 -25z"/>
<path d="M2335 2398 c-78 -69 -29 -188 77 -188 56 0 89 34 96 98 4 47 2 54
-26 82 -39 39 -107 43 -147 8z m40 -20 c-11 -6 -25 -19 -32 -27 -7 -9 -13 -12
-13 -7 0 16 32 46 49 46 12 -1 12 -3 -4 -12z m83 -4 c12 -8 22 -20 22 -26 0
-7 -6 -5 -12 4 -7 8 -22 20 -33 26 -11 6 -15 12 -10 12 6 0 21 -7 33 -16z
m-20 -26 c7 -7 12 -21 12 -33 0 -12 -5 -26 -12 -33 -7 -7 -21 -12 -33 -12 -12
0 -26 5 -33 12 -7 7 -12 21 -12 33 0 12 5 26 12 33 7 7 21 12 33 12 12 0 26
-5 33 -12z m-70 -92 c18 -10 22 -15 10 -16 -22 0 -58 47 -57 74 1 15 4 11 10
-11 6 -19 21 -39 37 -47z m119 52 c-3 -8 -6 -5 -6 6 -1 11 2 17 5 13 3 -3 4
-12 1 -19z m-21 -46 c-17 -16 -18 -16 -5 5 7 12 15 20 18 17 3 -2 -3 -12 -13
-22z"/>
<path d="M1276 2042 c-4 -7 -10 -53 -13 -102 l-6 -90 27 0 c25 0 26 3 26 48
-1 61 -24 160 -34 144z"/>
<path d="M1238 1803 c-2 -5 -2 -56 0 -115 l3 -108 50 0 49 0 0 115 0 115 -49
0 c-28 0 -51 -3 -53 -7z"/>
<path d="M1182 1523 c-26 -22 -25 -10 -23 -284 1 -253 4 -264 70 -278 19 -3
36 -11 38 -17 3 -10 -287 -24 -509 -24 l-88 0 0 -33 c0 -19 7 -39 19 -48 16
-15 19 -39 23 -260 5 -229 5 -245 -13 -265 -23 -25 -26 -74 -4 -74 9 0 20 -11
25 -26 9 -23 14 -25 62 -22 46 3 53 6 56 25 3 23 6 23 140 23 l137 0 -2 -56
c-1 -41 -7 -65 -23 -87 l-23 -30 24 -18 c31 -24 35 -24 54 4 12 18 25 22 66
22 45 0 54 4 81 33 25 28 29 41 27 78 -4 53 4 62 55 66 46 4 67 28 47 52 -10
12 -33 16 -92 16 -78 0 -79 0 -79 25 0 18 7 28 24 34 13 5 26 17 30 26 3 9 6
88 6 175 0 171 -8 207 -47 216 -17 5 -23 13 -23 35 0 19 5 29 15 29 8 0 15 -9
15 -20 0 -16 7 -20 34 -20 19 0 36 5 38 12 2 6 31 13 66 16 62 4 62 4 62 -22
0 -25 3 -27 38 -24 34 3 37 5 34 31 -3 23 0 27 20 27 66 0 77 59 15 74 -32 8
-37 13 -37 38 0 25 -3 28 -35 28 -31 0 -35 -3 -35 -25 0 -24 -2 -25 -67 -24
-58 1 -63 2 -33 9 67 16 73 36 66 195 -3 77 -6 186 -6 243 0 137 -5 142 -134
142 -75 0 -98 -4 -114 -17z m-14 -694 c2 -21 -2 -28 -21 -33 -42 -10 -48 -43
-41 -223 6 -142 10 -169 26 -185 10 -10 25 -18 33 -18 9 0 15 -9 15 -24 0 -23
-5 -25 -63 -31 -96 -10 -121 -5 -125 26 -2 21 2 28 23 33 14 4 30 17 35 31 9
23 4 304 -6 353 -3 15 -16 27 -34 34 -22 7 -30 16 -30 33 0 22 5 24 58 28 113
7 127 5 130 -24z m-258 -9 c0 -23 -4 -30 -20 -30 -34 0 -40 -32 -40 -202 0
-175 8 -211 48 -216 17 -3 22 -10 22 -33 0 -30 0 -30 -52 -27 l-53 3 -5 260
c-3 143 -4 263 -2 268 2 4 25 7 53 7 48 0 49 -1 49 -30z m340 -639 c0 -28 -28
-47 -48 -34 -24 15 -27 44 -7 59 22 17 55 1 55 -25z"/>
</g>
</svg>
